<?xml version="1.0" encoding="utf-8"?>
<!-- Generator: Adobe Illustrator 27.5.0, SVG Export Plug-In . SVG Version: 6.00 Build 0)  -->
<svg version="1.1" id="Capa_1" xmlns="http://www.w3.org/2000/svg" x="0px" y="0px"
	 viewBox="0 0 1898 2372" style="enable-background:new 0 0 1898 2372;" xml:space="preserve">
<g id="Capa_2">
</g>
<path style="fill:#F49D8C;" d="M632.132,433.517c1.652-3.721,3.112-6.986,3.833-8.68c3.389-7.962,7.28-15.774,10.951-23.652
	c3.618-7.763,7.048-15.618,9.47-23.684c2.57-8.581,3.959-17.42,3.191-26.234c-0.276-3.117-0.882-6.33-2.37-9.166
	c-1.254-2.397-5.347-2.674-7.023-0.435c-1.494,1.995-2.366,4.373-2.972,6.834c-0.475,1.933-0.808,3.915-1.104,5.82
	c-0.647,4.241-2.018,8.989-5.26,12.123c-1.994,1.922-5.856,1.02-6.674-1.392c-3.471-10.293-2.074-21.507-1.947-32.331
	c0.009-0.886,0.017-1.779,0.026-2.672c0.057-5.105,0.003-10.253-1.34-15.238c-0.921-3.473-2.534-6.82-5.096-9.701
	c-1.405-1.584-2.894-3.135-5.166-3.9c-1.926-0.65-4.03-0.727-6.047-0.268c-3.98,0.918-7.201,3.513-9.816,5.965
	c-2.768,2.594-5.01,5.539-7.307,8.417c-1.412,1.76-2.736,3.644-4.81,4.902c-2.329,1.415-5.358,1.892-7.679,3.325
	c-2.32,1.434-3.67,3.661-4.756,5.858c-7.716,15.699-5.508,33.069-1.923,49.845c0.548,2.542,1.119,5.072,1.697,7.582
	c2.255,9.795,4.511,19.596,6.774,29.392c0.088,7.019,0.707,12.863,1.712,17.753c6.631-2.244,13.897-3.094,20.935-3.336
	C617.067,430.38,625.1,430.851,632.132,433.517z"/>
<path style="fill:#de1a37;" d="M989.714,1190.905l-29.906-490.181c-13.974-0.946-40.037-27.935-45.786-40.707
	c-5.749-12.772-9.944-19.312-16.126-31.881c-6.182-12.568-21.093-7.882-34.07-13.753c-11.17,3.062-21.249,6.774-28.864,12.075
	l-0.63,0.511c-17.935,3.308-144.947,31.261-157.615,19.909c-4.954-4.442-7.311-11.049-9.057-17.469
	c-14.795-54.404,1.166-113.714-14.242-167.947c-2.467-8.685-6.008-17.556-12.988-23.283c-2.502-2.052-5.319-3.534-8.297-4.663
	c-7.032-2.666-15.065-3.136-22.7-2.874c-7.038,0.242-14.304,1.092-20.935,3.336c-4.603,1.558-8.91,3.767-12.583,6.994
	c-13.386,11.759-15.548,33.109-16.969,49.785c-1.975,23.177-2.628,46.467-1.981,69.718c1.279,45.975,7.654,91.812,19.04,136.375
	c5.761,22.548,13.284,45.327,31.756,60.384c18.351,14.957,40.99,23.988,63.902,29.2c37.934,8.628,80.463,12.793,118.956,6.933
	c7.487-1.14,14.788-2.798,21.625-5.303c3.549,32.535,10.908,64.8,14.757,97.381c10.901,92.271-6.695,185.266-24.216,276.512
	c14.1,10.922,30.11,19.654,47.158,26.546c43.906,17.749,94.927,22.889,139.636,18.822l1.13-0.107L989.714,1190.905z"/>
<path style="fill:#F49D8C;" d="M1119.57,406.922c-3.275-7.961-8.878-13.282-15.419-13.5c-5.961-0.199-11.431,3.88-15.23,10.45
	c-0.038-0.648-0.058-1.298-0.118-1.942c-1.207-13.132-9.773-26.604-22.753-28.936c-3.996-0.718-8.119-0.354-12.13-0.979
	c-16.706-2.607-25.836-20.421-32.312-36.04c-3.7-1.181-7.551,1.594-9.726,4.811c-2.177,3.217-3.482,7.053-6.203,9.825
	c-9.48,9.656-28.7,0.599-38.069,10.363c-4.588,4.783-4.719,12.128-5.241,18.734c-1.057,13.379-4.903,26.516-11.159,38.388
	c-2.15-14.342-10.448-24.993-20.004-24.674c-10.769,0.359-19.036,14.503-18.466,31.592c0.019,0.566,0.072,1.117,0.109,1.675
	c1.096,16.285,10.009,28.963,20.42,28.616l1.423-0.162c8.036,27.732,21.147,44.43,35.672,54.371
	c1.894,22.226,1.005,45.464-10.899,65.096c-0.747,1.231-1.537,2.439-2.335,3.642c0.225,0.606,0.463,1.21,0.615,1.831l0.022,0.102
	c6.873,6.723,49.678,45.16,98.564,13.092c2.577-4,5.379-7.901,8.471-11.529l0.081-0.194l0.065,0.029
	c0.492-0.573,0.993-1.137,1.5-1.696c-7.899-10.594-12.767-23.208-15.341-36.089c-1.8-9.005-2.479-18.162-2.676-27.342
	c18.88-9.784,34.821-30.401,43.736-65.967c2.848,2.923,6.229,4.693,9.919,4.817c10.768,0.359,19.959-13.203,20.529-30.291
	C1122.84,418.305,1121.687,412.067,1119.57,406.922z"/>
<path style="fill:#0b0b0b;" d="M1038.757,1207.564l0.127-19.195c-15.695,1.729-32.205,2.558-49.169,2.537l0.995,16.314l-1.13,0.107
	c-44.709,4.068-95.73-1.073-139.636-18.822c-1.474,41.56-2.496,81.07-1.888,95.407l-31.565,700.893h35.434h66.14h18.37
	l82.525-583.019l82.525,583.019h23.868h66.14h29.935l-37.648-763.868l2.962-32.004
	C1147.69,1203.785,1082.659,1211.271,1038.757,1207.564z"/>
<path style="fill:#242B45;" d="M931.207,393.422c9.556-0.319,17.854,10.332,20.004,24.674c6.256-11.871,10.102-25.009,11.159-38.388
	c0.522-6.607,0.653-13.952,5.241-18.734c9.369-9.765,28.589-0.707,38.069-10.363c2.721-2.772,4.026-6.608,6.203-9.825
	c2.175-3.217,6.026-5.992,9.726-4.811c6.475,15.619,15.606,33.433,32.312,36.04c4.011,0.626,8.134,0.262,12.13,0.979
	c12.98,2.332,21.546,15.804,22.753,28.936c0.06,0.644,0.08,1.294,0.118,1.942c3.8-6.57,9.269-10.649,15.23-10.45
	c6.541,0.218,12.144,5.539,15.419,13.5c0.531-0.939,1.063-1.877,1.594-2.816c5.684-10.044,11.54-21.799,7.51-32.613
	c-3.92-10.518-16.355-17.029-17.633-28.181c-0.789-6.89,3.073-13.802,1.744-20.608c-2.138-10.939-15.309-14.864-24.352-21.38
	c-13.515-9.739-10.026-28.578-22.791-35.841c-11.776-6.7-24.237-13.59-37.782-13.618c-10.335-0.021-21.568,3.823-30.459-1.448
	c-5.698-3.377-9.156-9.965-15.242-12.578c-7.712-3.312-16.695,1.048-22.666,6.948c-9.719,9.603-20.566,20.114-28.035,31.557
	c-4.577,7.014-9.221,16.169-4.689,23.212c1.086,1.689,2.704,3.26,2.706,5.268c0.002,1.589-1.032,2.97-2.048,4.191
	c-5.701,6.859-12.341,12.877-18.86,18.992c-14.204,27.77-17.164,76.266,4.284,98.682c-0.037-0.558-0.09-1.109-0.109-1.675
	C912.171,407.925,920.438,393.781,931.207,393.422z"/>
<path style="fill:#fff;" d="M1041.737,757.354c-0.304-16.84-10.545-32.426-10.237-49.266c0.027-1.463,0.223-2.909,0.338-4.364
	l-0.139,0.243c-1.75-17.244-2.773-38.537,1.671-56.01c4.787-18.825,11.707-36.839,22.079-53.333l0.881-1.348
	c-48.886,32.068-91.69-6.369-98.564-13.092c8.235,33.735,3.978,86.409,2.04,120.54l29.906,490.181
	c16.964,0.021,33.475-0.808,49.169-2.537L1041.737,757.354z"/>
<path style="fill:#de1a37;" d="M1328.745,983.892c-2.422-13.593-5.106-27.142-8.028-40.639c-1.928-8.906-3.996-17.78-6.141-26.636
	c-7.149-29.514-15.458-58.748-25.003-87.568c-16.312-49.246-35.149-97.694-58.098-144.146
	c-12.732-25.771-21.972-44.299-42.744-57.637l-0.995-0.809c-9.404-6.545-20.487-10.373-31.892-13.237
	c-4.625-1.318-9.568-2.558-14.935-3.71c-10.977-1.85-22.562,0.047-32.318,5.414c-7.828,4.306-14.431,10.789-18.96,18.484
	c-4.859,8.256-7.174,17.628-12.17,25.732c-5.838,9.468-30.633,16.258-45.623,44.585c-0.115,1.454-0.311,2.901-0.338,4.364
	c-0.308,16.84,9.933,32.425,10.237,49.266l-2.854,431.015l-0.127,19.195c43.903,3.707,108.934-3.779,147.983-18.631
	c19.31-7.344,32.298-16.482,33.175-26.974c-14.757-76.855-29.498-154.949-27.289-232.807c13.401,27.787,28.745,54.795,35.764,84.726
	c8.737,37.258,3.896,76.193,5.886,114.409c1.133,21.764,4.506,43.411,10.047,64.488c2.025,7.704,4.593,15.745,10.53,21.057
	c1.25,1.118,2.626,2.026,4.053,2.842c6.306,3.606,14.1,4.563,21.497,4.998c10.309,0.606,21.334,0.348,30.545-3.781
	c2.53-1.134,4.95-2.504,7.148-4.296c9.129-7.442,12.851-19.424,15.22-31.073c0.174-0.857,0.341-1.711,0.502-2.563
	C1346.056,1115.363,1340.277,1048.619,1328.745,983.892z"/>
<path style="fill:#e5263d;" d="M897.896,628.137c6.181,12.568,10.377,19.109,16.126,31.881
	c5.749,12.772,31.812,39.761,45.786,40.707c1.938-34.131,6.195-86.805-2.04-120.54l-0.022-0.102
	c-0.152-0.621-0.391-1.224-0.615-1.831c-2.408-6.509-8.731-12.15-14.86-15.219c-6.802-3.406-16.19-4-23.645-3.239
	c-16.823,1.717-33.605,7.699-43.123,22.557c-5.889,9.193-11.678,20.867-11.678,32.033h0.001
	C876.803,620.255,891.714,615.569,897.896,628.137z"/>
<path style="fill:#e5263d;" d="M1064.802,581.747c-3.092,3.628-5.894,7.529-8.471,11.529l-0.881,1.348
	c-10.373,16.494-17.292,34.508-22.079,53.333c-4.445,17.474-3.421,38.766-1.671,56.01l0.139-0.243
	c14.99-28.327,39.785-35.116,45.623-44.585c4.996-8.104,7.311-17.475,12.17-25.732c4.529-7.695,11.132-14.178,18.96-18.484
	c9.757-5.367,21.341-7.264,32.318-5.414c0.565,0.095,1.136,0.154,1.697,0.269c-3.101-8.665-6.264-17.448-10.99-25.295
	c-1.087-1.805-2.257-3.56-3.527-5.253c-6.795-9.053-17.04-16.216-28.355-16.516c-5.82-0.154-11.591,1.507-16.784,4.138
	c-6.319,3.201-11.733,7.776-16.501,13.033c-0.507,0.558-1.008,1.122-1.5,1.696L1064.802,581.747z"/>
<path style="fill:#F49D8C;" d="M1280.403,1221.672c-7.397-0.435-15.19-1.392-21.497-4.998c-2.635,5.768-5.374,11.504-8.056,17.259
	c-3.619,7.763-7.049,15.618-9.471,23.684c-2.569,8.581-3.958,17.42-3.191,26.234c0.277,3.117,0.882,6.329,2.37,9.166
	c1.254,2.397,5.347,2.674,7.023,0.435c1.494-1.995,2.366-4.372,2.973-6.834c0.475-1.933,0.808-3.915,1.104-5.82
	c0.646-4.241,2.018-8.989,5.26-12.123c1.993-1.922,5.855-1.02,6.673,1.391c3.471,10.293,2.074,21.507,1.947,32.331
	c-0.008,0.887-0.017,1.78-0.026,2.673c-0.056,5.105-0.003,10.253,1.34,15.238c0.922,3.473,2.534,6.82,5.096,9.701
	c1.405,1.584,2.895,3.135,5.165,3.9c1.926,0.65,4.03,0.728,6.047,0.268c3.98-0.918,7.201-3.513,9.816-5.965
	c2.769-2.594,5.01-5.539,7.307-8.417c1.412-1.76,2.735-3.645,4.81-4.902c2.329-1.415,5.358-1.892,7.678-3.325
	c2.321-1.434,3.67-3.661,4.756-5.859c7.717-15.699,5.509-33.069,1.924-49.845c-0.548-2.542-1.12-5.072-1.697-7.582
	c-2.256-9.795-4.511-19.596-6.775-29.392l-0.032-1.001C1301.737,1222.021,1290.712,1222.278,1280.403,1221.672z"/>
<path style="fill:#F5A789;" d="M1130.127,2033.873h54.643c2.27-16.009,4.515-32.396,6.721-49.068h-66.14
	C1126.556,2001.194,1128.175,2017.553,1130.127,2033.873z"/>
<path style="fill:#484848;" d="M1225.618,2108.942l-0.455,0.904c-0.49,1.046-1.735,1.497-2.782,1.007
	c-0.914-0.428-1.331-1.428-1.106-2.373c-2.724-0.357-5.433-0.832-8.123-1.369l-0.347,0.667c-0.49,1.046-1.736,1.497-2.782,1.007
	c-0.978-0.458-1.403-1.572-1.059-2.57c-2.893-0.667-5.753-1.392-8.531-2.188l-0.4-0.144c-0.597,0.69-1.576,0.956-2.443,0.55
	c-0.745-0.349-1.169-1.085-1.185-1.856c-2.614-0.971-5.036-2.071-7.233-3.321l-0.346,0.717c-0.49,1.046-1.735,1.497-2.782,1.007
	c-1.046-0.49-1.497-1.735-1.007-2.781l0.569-1.181c-10.086-7.025-16.272-17.16-24.564-28.876
	c-7.092,2.364-15.262,2.964-26.095,3.226l-0.002,0.003v0c-0.027,0.043-11.26,17.694-9.634,59.416h155.04
	c-0.033-0.668-0.097-1.334-0.177-1.998c-0.212-1.767-0.544-3.522-1.179-5.22c-3.586-9.615-12.713-15.405-22.557-19.661
	c-3.763,2.384-8.039,4.138-13.237,4.836C1237.505,2109.508,1231.572,2109.477,1225.618,2108.942z"/>
<path style="fill:#484848;" d="M1179.264,2055.74c-0.69,0.746-1.378,1.479-2.061,2.155l-0.484,0.454
	c-0.705,0.68-1.408,1.343-2.111,1.952l-0.373,0.307c-0.744,0.632-1.488,1.238-2.236,1.796l-0.26,0.185
	c-0.789,0.58-1.581,1.128-2.382,1.632l-0.157,0.094c-0.837,0.521-1.681,1.009-2.537,1.454l-0.076,0.037
	c-0.884,0.458-1.781,0.879-2.691,1.263l-0.015,0.006c-0.928,0.391-1.872,0.746-2.837,1.067
	c8.293,11.715,14.479,21.851,24.564,28.876c1.211-2.512,2.114-4.021,4.089-6.597c2.4-3.148,5.491-5.982,9.339-7.659l0,0
	c1.059-0.461,2.291,0.024,2.752,1.083c0.461,1.059-0.024,2.292-1.083,2.753c-2.997,1.3-5.596,3.62-7.68,6.358
	c-2.015,2.664-2.574,3.621-3.852,6.302c2.197,1.25,4.619,2.35,7.233,3.321l0.178-0.926c0.786-1.678,1.252-2.61,1.846-3.528
	c0.595-0.914,1.203-1.658,2.307-3.109c2.4-3.149,5.492-5.982,9.338-7.659h0.001l1.072-0.126c-3.59-1.49-7.082-3.167-10.149-5.384
	c-1.739-1.258-3.349-2.675-4.781-4.299c-4.232-4.797-8.7-12.108-11.553-18.905c-0.951-2.265-1.723-4.473-2.246-6.513l-0.002,0.003
	c-0.882,1.075-1.753,2.086-2.617,3.042L1179.264,2055.74z"/>
<path style="fill:#F5A789;" d="M858.644,2033.873h54.643c1.951-16.32,3.571-32.678,4.776-49.068h-66.14
	C854.129,2001.477,856.374,2017.863,858.644,2033.873z"/>
<path style="fill:#fff;" d="M858.207,2033.873c0.925,6.113,1.856,12.197,2.788,18.258c0.881,1.075,1.753,2.087,2.617,3.043
	l0.538,0.567c0.69,0.746,1.378,1.479,2.061,2.155l0.484,0.454c0.705,0.68,1.408,1.343,2.111,1.952l0.372,0.307
	c0.744,0.632,1.488,1.238,2.236,1.796l0.26,0.185c0.788,0.579,1.579,1.127,2.378,1.63l0.167,0.1
	c0.834,0.519,1.674,1.004,2.527,1.448l0.084,0.042c0.882,0.456,1.775,0.877,2.683,1.26l0.022,0.009
	c0.927,0.39,1.87,0.744,2.833,1.065c7.092,2.364,15.262,2.964,26.095,3.226l0.002,0.003c0.325-3.186,0.694-6.433,1.176-9.729
	c1.271-8.7,2.397-17.422,3.453-26.15c0.065-0.541,0.149-1.078,0.214-1.619h-0.022h-54.643H858.207z"/>
<path style="fill:#484848;" d="M908.464,2071.367c-10.833-0.262-19.003-0.862-26.095-3.226
	c-8.293,11.715-14.479,21.851-24.565,28.876l0.569,1.181c0.49,1.047,0.038,2.292-1.007,2.782c-1.047,0.49-2.292,0.039-2.782-1.007
	l-0.345-0.717c-2.197,1.25-4.619,2.35-7.233,3.322c-0.016,0.771-0.439,1.506-1.185,1.856c-0.867,0.406-1.846,0.139-2.443-0.55
	l-0.399,0.143c-2.778,0.796-5.638,1.522-8.531,2.188c0.344,0.998-0.081,2.112-1.059,2.57c-1.046,0.49-2.291,0.039-2.781-1.007
	l-0.346-0.667c-2.691,0.537-5.4,1.011-8.123,1.369c0.224,0.944-0.193,1.945-1.107,2.373c-1.047,0.49-2.292,0.039-2.782-1.007
	l-0.454-0.904c-5.954,0.535-11.887,0.566-17.586-0.198c-5.199-0.698-9.474-2.453-13.237-4.836
	c-9.844,4.256-18.97,10.046-22.556,19.661c-0.634,1.698-0.967,3.453-1.179,5.22c-0.08,0.664-0.144,1.33-0.177,1.998h155.04
	c1.627-41.727-9.609-59.378-9.634-59.416l0,0L908.464,2071.367z"/>
<path style="fill:#484848;" d="M842.674,2095.015c1.104,1.451,1.712,2.196,2.307,3.109c0.594,0.918,1.06,1.849,1.847,3.528
	l0.177,0.926c2.614-0.972,5.036-2.071,7.233-3.322c-1.278-2.681-1.836-3.638-3.852-6.302c-2.083-2.738-4.683-5.058-7.68-6.358h0
	c-1.059-0.461-1.545-1.693-1.084-2.753c0.461-1.059,1.693-1.544,2.753-1.083c3.846,1.677,6.938,4.511,9.339,7.659
	c1.975,2.576,2.878,4.085,4.089,6.597c10.085-7.025,16.272-17.16,24.565-28.876c-0.963-0.321-1.906-0.676-2.833-1.065l-0.022-0.009
	c-0.909-0.383-1.802-0.803-2.683-1.26l-0.084-0.042c-0.852-0.444-1.693-0.929-2.527-1.448l-0.167-0.1
	c-0.799-0.503-1.59-1.051-2.378-1.63l-0.26-0.185c-0.748-0.558-1.492-1.164-2.236-1.796l-0.372-0.307
	c-0.703-0.609-1.407-1.272-2.111-1.952l-0.484-0.454c-0.683-0.676-1.371-1.408-2.061-2.155l-0.538-0.567
	c-0.864-0.956-1.735-1.967-2.617-3.043l-0.002-0.002c-0.785,3.058-2.128,6.498-3.799,9.94c-1.114,2.295-2.372,4.59-3.707,6.775
	c-2.003,3.277-4.177,6.304-6.294,8.703c-2.863,3.249-6.442,5.667-10.334,7.641c-1.485,0.753-3.042,1.396-4.595,2.041l1.07,0.127
	C837.183,2089.033,840.274,2091.866,842.674,2095.015z"/>
<path style="fill:#fff;" d="M1130.104,2033.873c0.066,0.549,0.151,1.095,0.217,1.643c1.054,8.72,2.18,17.433,3.45,26.126
	c0.482,3.296,0.851,6.543,1.176,9.729l0.002-0.003c10.833-0.262,19.002-0.862,26.095-3.226c0.965-0.321,1.909-0.676,2.837-1.067
	l0.015-0.006c0.911-0.384,1.807-0.805,2.691-1.263l0.076-0.037c0.856-0.446,1.7-0.933,2.537-1.454l0.157-0.094
	c0.8-0.504,1.593-1.053,2.382-1.632l0.26-0.185c0.748-0.558,1.492-1.164,2.236-1.796l0.373-0.307
	c0.703-0.609,1.406-1.272,2.111-1.952l0.484-0.454c0.683-0.676,1.371-1.408,2.061-2.155l0.537-0.567
	c0.864-0.956,1.735-1.967,2.617-3.042c0.932-6.063,1.863-12.146,2.788-18.259h-0.437h-54.643H1130.104z"/>
<path style="fill:#484848;" d="M1211.149,2087.229c-3.589-1.49-7.082-3.167-10.149-5.384
	C1204.067,2084.063,1207.559,2085.74,1211.149,2087.229L1211.149,2087.229z"/>
<rect x="1125.314" y="2130.787" style="fill:#35347E;" width="155.04" height="4.226"/>
<path style="fill:#484848;" d="M1222.889,2094.497c-2.888,2.636-2.534,2.251-4.827,5.237c-2.089,2.742-3.548,4.656-4.909,7.377
	c2.69,0.537,5.4,1.011,8.123,1.369l0.099-0.409c1.229-2.62,2.586-5.321,4.473-7.8c0.796-1.039,1.455-2.115,2.358-3.204
	c0.75-0.909,1.786-1.76,3.054-2.447c-2.722-0.972-5.445-1.944-8.167-2.916C1223.741,2092.559,1223.699,2093.763,1222.889,2094.497z"
	/>
<path style="fill:#484848;" d="M1233.63,2098.037c-0.991,0.441-1.561,0.942-2.213,1.71c-0.644,0.763-1.304,1.822-2.241,3.058
	c-1.388,1.819-2.499,3.932-3.558,6.136c5.953,0.535,11.887,0.566,17.586-0.198c5.199-0.698,9.474-2.453,13.237-4.836h0l-0.014-0.005
	c-3.2-1.382-6.472-2.608-9.657-3.744c-3.976-1.42-7.951-2.838-11.925-4.258C1234.94,2096.784,1234.489,2097.664,1233.63,2098.037z"
	/>
<path style="fill:#484848;" d="M1211.746,2091.191c-2.998,1.3-5.596,3.621-7.68,6.358c-1.138,1.492-1.71,2.206-2.125,2.85
	c-0.416,0.64-0.791,1.366-1.568,3.026l-0.339,0.458l0.4,0.144c2.778,0.796,5.638,1.521,8.531,2.188l0.052-0.211
	c1.667-3.563,3.497-5.89,5.717-8.804c2.19-2.9,2.545-3.285,5.346-5.803h0.001l1.074-0.384c-0.799-0.284-1.596-0.57-2.395-0.855
	c-2.057-0.734-4.135-1.483-6.187-2.295l-0.213-0.095l0.469,0.672C1213.29,2089.498,1212.805,2090.73,1211.746,2091.191z"/>
<path style="fill:#A2C4D4;" d="M1186.047,2100.98c1.046,0.49,2.292,0.039,2.782-1.007l0.346-0.717
	c1.278-2.68,1.836-3.638,3.852-6.302c2.083-2.738,4.682-5.058,7.68-6.358c1.059-0.461,1.545-1.693,1.083-2.753
	c-0.461-1.059-1.693-1.544-2.752-1.083l0,0c-3.847,1.677-6.938,4.511-9.339,7.659c-1.975,2.576-2.878,4.085-4.089,6.597
	l-0.569,1.181C1184.55,2099.244,1185.001,2100.49,1186.047,2100.98z"/>
<path style="fill:#A2C4D4;" d="M1210.077,2087.355L1210.077,2087.355c-3.847,1.678-6.938,4.511-9.339,7.659
	c-1.104,1.451-1.712,2.196-2.307,3.109c-0.594,0.918-1.06,1.849-1.846,3.528l-0.178,0.926c0.016,0.771,0.439,1.507,1.185,1.856
	c0.867,0.406,1.846,0.14,2.443-0.55l0.339-0.458c0.777-1.66,1.152-2.386,1.568-3.026c0.414-0.644,0.986-1.358,2.125-2.85
	c2.083-2.738,4.682-5.058,7.68-6.358c1.059-0.461,1.544-1.693,1.083-2.752l-0.469-0.672l-1.211-0.538l0,0L1210.077,2087.355z"/>
<path style="fill:#A2C4D4;" d="M1220.08,2091.397c-2.801,2.517-3.156,2.902-5.346,5.803c-2.22,2.914-4.05,5.24-5.717,8.804
	l-0.052,0.211c-0.344,0.998,0.081,2.112,1.059,2.57c1.046,0.49,2.292,0.039,2.782-1.007l0.347-0.667
	c1.361-2.72,2.821-4.635,4.909-7.377c2.294-2.986,1.939-2.601,4.827-5.237c0.81-0.734,0.852-1.938,0.204-2.792l-0.057-0.162
	c-0.499-0.551-1.198-0.647-1.88-0.531L1220.08,2091.397L1220.08,2091.397z"/>
<path style="fill:#A2C4D4;" d="M1225.848,2100.271c-1.886,2.479-3.244,5.18-4.473,7.8l-0.099,0.409
	c-0.225,0.944,0.193,1.945,1.106,2.373c1.046,0.49,2.292,0.039,2.782-1.007l0.455-0.904c1.059-2.204,2.169-4.317,3.558-6.136
	c0.937-1.237,1.598-2.295,2.241-3.058c0.653-0.768,1.223-1.27,2.213-1.71c0.859-0.374,1.309-1.253,1.216-2.136l-0.132-0.616
	c-0.461-1.059-1.693-1.544-2.752-1.083v0l-0.702,0.419c-1.268,0.686-2.304,1.538-3.054,2.447
	C1227.303,2098.156,1226.644,2099.232,1225.848,2100.271z"/>
<rect x="763.059" y="2130.787" style="fill:#35347E;" width="155.04" height="4.226"/>
<path style="fill:#484848;" d="M817.565,2100.271c1.886,2.479,3.243,5.18,4.473,7.801l0.1,0.408
	c2.723-0.357,5.432-0.832,8.123-1.369c-1.362-2.72-2.821-4.635-4.91-7.377c-2.294-2.986-1.938-2.6-4.827-5.237l0,0l0,0
	c-0.81-0.734-0.853-1.938-0.204-2.793c-2.723,0.971-5.445,1.944-8.167,2.916c1.268,0.686,2.304,1.538,3.054,2.447
	C816.11,2098.156,816.768,2099.232,817.565,2100.271z"/>
<path style="fill:#484848;" d="M817.795,2108.942c-1.059-2.203-2.17-4.317-3.557-6.136c-0.937-1.237-1.598-2.295-2.241-3.058
	c-0.653-0.768-1.223-1.27-2.213-1.71l0,0c-0.859-0.374-1.309-1.253-1.215-2.137c-3.975,1.42-7.95,2.839-11.926,4.258
	c-3.187,1.137-6.462,2.363-9.663,3.747l-0.007,0.002c3.764,2.384,8.039,4.138,13.237,4.836
	C805.908,2109.508,811.841,2109.477,817.795,2108.942z"/>
<path style="fill:#484848;" d="M828.679,2097.199c2.22,2.914,4.05,5.24,5.717,8.804l0.052,0.211
	c2.893-0.667,5.753-1.392,8.531-2.188l0.399-0.143l-0.339-0.458c-0.776-1.66-1.151-2.386-1.567-3.026
	c-0.415-0.644-0.986-1.358-2.125-2.85c-2.083-2.738-4.682-5.058-7.68-6.358l0,0c-1.059-0.461-1.544-1.693-1.083-2.752l0.468-0.671
	l-0.212,0.094c-2.051,0.812-4.13,1.561-6.187,2.295c-0.798,0.285-1.597,0.571-2.395,0.855l1.074,0.384
	C826.134,2093.914,826.488,2094.3,828.679,2097.199z"/>
<path style="fill:#A2C4D4;" d="M844.376,2082.76c-1.06-0.461-2.292,0.024-2.753,1.083c-0.461,1.06,0.025,2.292,1.084,2.753h0
	c2.997,1.3,5.597,3.62,7.68,6.358c2.015,2.664,2.573,3.621,3.852,6.302l0.345,0.717c0.49,1.046,1.735,1.497,2.782,1.007
	c1.046-0.49,1.497-1.735,1.007-2.782l-0.569-1.181c-1.211-2.512-2.115-4.021-4.089-6.597
	C851.314,2087.271,848.223,2084.438,844.376,2082.76z"/>
<path style="fill:#A2C4D4;" d="M831.667,2091.191L831.667,2091.191c2.998,1.3,5.596,3.621,7.68,6.358
	c1.138,1.492,1.71,2.206,2.125,2.85c0.416,0.64,0.791,1.366,1.567,3.026l0.339,0.458c0.597,0.689,1.576,0.956,2.443,0.55
	c0.746-0.349,1.169-1.085,1.185-1.856l-0.177-0.926c-0.787-1.679-1.253-2.61-1.847-3.528c-0.595-0.914-1.203-1.658-2.307-3.109
	c-2.401-3.149-5.492-5.982-9.339-7.659l-1.07-0.127l-1.214,0.539l-0.468,0.671C830.122,2089.498,830.608,2090.73,831.667,2091.191z"
	/>
<path style="fill:#A2C4D4;" d="M820.524,2094.498c2.889,2.637,2.534,2.25,4.827,5.237c2.088,2.742,3.548,4.656,4.91,7.377
	l0.346,0.667c0.49,1.046,1.735,1.497,2.781,1.007c0.978-0.458,1.403-1.572,1.059-2.57l-0.052-0.211
	c-1.667-3.564-3.497-5.89-5.717-8.804c-2.19-2.9-2.545-3.286-5.347-5.803l-1.074-0.384c-0.683-0.118-1.381-0.021-1.88,0.531
	l-0.058,0.162C819.671,2092.559,819.714,2093.763,820.524,2094.498z"/>
<path style="fill:#A2C4D4;" d="M809.783,2098.037L809.783,2098.037c0.99,0.441,1.561,0.942,2.213,1.71
	c0.643,0.763,1.304,1.822,2.241,3.058c1.388,1.819,2.499,3.932,3.557,6.136l0.454,0.904c0.49,1.046,1.735,1.497,2.782,1.007
	c0.914-0.428,1.331-1.428,1.107-2.373l-0.1-0.408c-1.229-2.621-2.587-5.322-4.473-7.801c-0.797-1.039-1.455-2.115-2.358-3.204
	c-0.75-0.909-1.786-1.76-3.054-2.447l-0.702-0.419c-1.059-0.461-2.291,0.024-2.752,1.084l-0.132,0.616
	C808.474,2096.784,808.924,2097.664,809.783,2098.037z"/>
<path style="fill:#F18B7C;" d="M1014.288,523.41c-11.191-0.639-23.892-2.95-36.092-9.241c19.257,19.364,45.667,26.443,73.056,32.381
	l-0.169-0.783c-1.846-9.646-2.513-19.46-2.678-29.297C1037.723,521.999,1026.109,524.085,1014.288,523.41z"/>
<path style="fill:#FFFFFF;" d="M998.114,472.496c7.111,12.603,30.966,10.726,38.781-0.007l0.772-1.261
	c0.886-1.737,1.26-3.748,1.145-5.679c-0.125-2.058-1.463-3.286-3.535-2.149c-2.34,1.289-4.455,2.461-7.121,2.906
	c-4.19,0.699-8.519,0.735-12.725,0.139c-4.083-0.577-8.063-1.77-12.191-2.046C998.302,464.07,995.576,467.999,998.114,472.496z"/>
<path style="fill:#F18B7C;" d="M1030.403,490.33c-6.888,2.435-14.47,2.873-21.593,1.246c2.763,3.28,6.061,6.704,10.796,6.389
	C1024.642,497.631,1027.467,494.806,1030.403,490.33z"/>
<path style="fill:#522813;" d="M982.26,412.269c0,5.614,3.065,10.172,6.849,10.172s6.854-4.558,6.854-10.172
	c0-5.614-3.07-10.166-6.854-10.166S982.26,406.655,982.26,412.269z"/>
<path style="fill:#522813;" d="M1050.421,422.44c3.785,0,6.854-4.558,6.854-10.172c0-5.614-3.069-10.166-6.854-10.166
	c-3.784,0-6.849,4.552-6.849,10.166C1043.572,417.883,1046.637,422.44,1050.421,422.44z"/>
<path style="fill:#522813;" d="M1001.674,395.576c0.942,0.141,2.779,0.372,3.294-0.579c0.998-1.84-0.218-4.355-1.798-5.47
	c-2.168-1.528-4.837-1.538-7.349-1.358c-7.27,0.52-14.477,2.274-21.337,5.192c-1.048,0.446-4.998,2.488-6.141,6.036
	c0,0,8.414-3.031,10.82-3.857C987.808,392.574,992.633,394.223,1001.674,395.576z"/>
<path style="fill:#522813;" d="M1036.552,394.954c9.041-1.352,13.867-3.002,22.511-0.035c2.406,0.826,10.821,3.856,10.821,3.856
	c-1.144-3.548-5.094-5.59-6.142-6.036c-6.86-2.918-14.067-4.672-21.337-5.193c-2.513-0.18-5.181-0.169-7.349,1.358
	c-1.581,1.115-2.797,3.63-1.799,5.47C1033.773,395.325,1035.61,395.095,1036.552,394.954z"/>
<path style="fill:#F18B7C;" d="M1045.022,441.509c0,9.47,8.635,17.146,19.286,17.146c10.651,0,19.286-7.676,19.286-17.146
	c0-9.469-8.635-17.145-19.286-17.145C1053.656,424.363,1045.022,432.039,1045.022,441.509z"/>
<path style="fill:#F18B7C;" d="M998.48,441.509c0-9.469-8.635-17.145-19.286-17.145c-10.652,0-19.286,7.676-19.286,17.145
	c0,9.47,8.635,17.146,19.286,17.146C989.845,458.655,998.48,450.978,998.48,441.509z"/>
<path style="fill:#522813;" d="M1016.314,449.447l14.582-5.525c0.697-0.264,1.064-1.034,0.83-1.741l-12.71-38.533
	c-0.241-0.731-1.03-1.128-1.761-0.887c-0.731,0.241-1.129,1.03-0.887,1.761h-0.001l12.291,37.265l-13.334,5.052
	c-0.721,0.273-1.083,1.078-0.81,1.798C1014.789,449.357,1015.594,449.72,1016.314,449.447z"/>
<path style="fill:#522813;" d="M928.346,430.16c0.607-0.475,0.714-1.351,0.24-1.958c-1.798-2.281-2.913-5.749-2.904-9.067
	c-0.002-2.221,0.487-4.359,1.482-6.054c1.002-1.697,2.457-2.977,4.61-3.648l1.242-0.191c1.368,0.008,2.584,0.683,3.344,1.969
	c0.388,0.665,1.241,0.891,1.907,0.504c0.665-0.388,0.891-1.242,0.503-1.908l0,0c-1.219-2.109-3.412-3.362-5.754-3.354
	c-0.685,0-1.38,0.104-2.064,0.315c-2.82,0.862-4.903,2.679-6.195,4.906c-1.3,2.228-1.861,4.842-1.863,7.462
	c0.009,3.917,1.241,7.886,3.496,10.785C926.863,430.527,927.74,430.634,928.346,430.16z"/>
<path style="fill:#522813;" d="M933.808,418.028c-0.533,0.556-0.515,1.439,0.041,1.972l0,0c2.919,2.781,4.966,7.401,4.95,11.674
	c-0.001,1.755-0.333,3.445-1.043,4.958c-1.249,2.617-3.365,3.77-5.612,3.79c-1.892-0.002-3.882-0.872-5.404-2.701
	c-0.493-0.592-1.372-0.674-1.964-0.182c-0.592,0.492-0.674,1.371-0.182,1.963c2.013,2.428,4.795,3.709,7.55,3.708
	c3.273,0.02,6.499-1.862,8.137-5.393c0.907-1.935,1.307-4.038,1.306-6.143c-0.016-5.128-2.305-10.304-5.807-13.686
	C935.225,417.454,934.342,417.472,933.808,418.028z"/>
<path style="fill:#522813;" d="M1098.998,411.21L1098.998,411.21c0.759-1.287,1.976-1.961,3.343-1.969l1.243,0.191
	c2.153,0.671,3.608,1.952,4.609,3.648c0.994,1.695,1.483,3.832,1.481,6.054c0.009,3.318-1.107,6.787-2.903,9.068
	c-0.475,0.607-0.367,1.484,0.24,1.958c0.608,0.474,1.484,0.366,1.958-0.24c2.253-2.899,3.486-6.869,3.494-10.786
	c-0.002-2.62-0.563-5.233-1.863-7.461c-1.292-2.227-3.375-4.044-6.195-4.906c-0.686-0.211-1.381-0.316-2.065-0.315
	c-2.342-0.008-4.534,1.246-5.753,3.354c-0.388,0.666-0.162,1.519,0.503,1.908C1097.756,412.101,1098.61,411.875,1098.998,411.21z"/>
<path style="fill:#522813;" d="M1103.212,443.209c2.754,0.002,5.536-1.28,7.55-3.707c0.493-0.592,0.411-1.471-0.181-1.963
	c-0.592-0.493-1.471-0.411-1.963,0.181c-1.525,1.83-3.515,2.7-5.406,2.701c-2.246-0.02-4.362-1.173-5.611-3.79
	c-0.711-1.512-1.043-3.202-1.044-4.958c-0.016-4.273,2.031-8.893,4.951-11.674c0.556-0.533,0.574-1.416,0.041-1.972
	c-0.534-0.556-1.416-0.573-1.972-0.04l0,0c-3.502,3.381-5.793,8.558-5.808,13.686c0,2.104,0.398,4.208,1.308,6.143
	C1096.713,441.347,1099.94,443.229,1103.212,443.209z"/>
<path style="fill:#522813;" d="M1086.617,1064.76c-0.714-1.365-2.399-1.893-3.764-1.179c-1.365,0.714-1.892,2.399-1.179,3.764l0,0
	c21.882,41.817,62.726,73.074,108.809,83.27c1.503,0.332,2.993-0.618,3.325-2.121c0.332-1.504-0.618-2.993-2.121-3.326
	C1147.272,1135.368,1107.682,1105.071,1086.617,1064.76z"/>
<path style="fill:#522813;" d="M833.762,1148.494c0.333,1.503,1.821,2.453,3.325,2.121c46.082-10.196,86.926-41.453,108.809-83.27
	c0.713-1.365,0.186-3.05-1.179-3.764c-1.365-0.713-3.05-0.186-3.763,1.179h0c-21.066,40.311-60.655,70.608-105.069,80.408
	C834.38,1145.5,833.43,1146.989,833.762,1148.494z"/>
<path style="fill:#522813;" d="M1127.259,759.208c-1.5,0.35-2.432,1.85-2.082,3.35c12.553,53.759,35.635,105.026,67.562,150.063
	c0.891,1.256,2.632,1.553,3.888,0.662c1.257-0.89,1.553-2.632,0.663-3.888v-0.001c-31.507-44.441-54.295-95.055-66.682-148.105
	C1130.259,759.789,1128.759,758.857,1127.259,759.208z"/>
<path style="fill:#522813;" d="M811.36,773.047c28.821-27.966,52.142-61.562,68.267-98.342c0.618-1.411-0.024-3.056-1.435-3.674
	c-1.411-0.619-3.056,0.023-3.674,1.434h-0.001c-15.831,36.113-38.744,69.12-67.042,96.578c-1.105,1.073-1.132,2.839-0.059,3.944
	C808.49,774.093,810.255,774.12,811.36,773.047z"/>
</svg>
